<mxfile host="app.diagrams.net" modified="2024-01-08T23:56:51.686Z" agent="Mozilla/5.0 (X11; Linux x86_64) AppleWebKit/537.36 (KHTML, like Gecko) Chrome/120.0.0.0 Safari/537.36" etag="mZxT_vZPMGijMtF60p8t" version="22.1.17" type="device">
  <diagram name="Page-1" id="jBqRzzuJj58iOIcifOa-">
    <mxGraphModel dx="2284" dy="746" grid="1" gridSize="10" guides="1" tooltips="1" connect="1" arrows="1" fold="1" page="1" pageScale="1" pageWidth="850" pageHeight="1100" math="0" shadow="0">
      <root>
        <mxCell id="0" />
        <mxCell id="1" parent="0" />
        <mxCell id="AQdLPhv-uh6YqJUB_EW2-1" value="Krusty Krab&amp;nbsp;" style="rounded=0;whiteSpace=wrap;html=1;" vertex="1" parent="1">
          <mxGeometry x="60" y="220" width="120" height="60" as="geometry" />
        </mxCell>
        <mxCell id="AQdLPhv-uh6YqJUB_EW2-4" value="Menu Items" style="rounded=0;whiteSpace=wrap;html=1;" vertex="1" parent="1">
          <mxGeometry x="380" y="390" width="120" height="60" as="geometry" />
        </mxCell>
        <mxCell id="AQdLPhv-uh6YqJUB_EW2-5" value="Employees" style="rounded=0;whiteSpace=wrap;html=1;" vertex="1" parent="1">
          <mxGeometry x="380" y="220" width="120" height="60" as="geometry" />
        </mxCell>
        <mxCell id="AQdLPhv-uh6YqJUB_EW2-6" value="Customers" style="rounded=0;whiteSpace=wrap;html=1;" vertex="1" parent="1">
          <mxGeometry x="60" y="390" width="120" height="60" as="geometry" />
        </mxCell>
        <mxCell id="AQdLPhv-uh6YqJUB_EW2-7" value="Phone Number" style="ellipse;whiteSpace=wrap;html=1;" vertex="1" parent="1">
          <mxGeometry x="-140" y="130" width="120" height="80" as="geometry" />
        </mxCell>
        <mxCell id="AQdLPhv-uh6YqJUB_EW2-8" value="" style="endArrow=none;html=1;rounded=0;exitX=0;exitY=0;exitDx=0;exitDy=0;entryX=0.5;entryY=1;entryDx=0;entryDy=0;" edge="1" parent="1" source="AQdLPhv-uh6YqJUB_EW2-1" target="AQdLPhv-uh6YqJUB_EW2-7">
          <mxGeometry width="50" height="50" relative="1" as="geometry">
            <mxPoint x="160" y="170" as="sourcePoint" />
            <mxPoint x="210" y="120" as="targetPoint" />
          </mxGeometry>
        </mxCell>
        <mxCell id="AQdLPhv-uh6YqJUB_EW2-9" value="Opening Hours" style="ellipse;whiteSpace=wrap;html=1;" vertex="1" parent="1">
          <mxGeometry x="-140" y="40" width="120" height="80" as="geometry" />
        </mxCell>
        <mxCell id="AQdLPhv-uh6YqJUB_EW2-10" value="" style="endArrow=none;html=1;rounded=0;entryX=0.5;entryY=1;entryDx=0;entryDy=0;exitX=0;exitY=0;exitDx=0;exitDy=0;" edge="1" parent="1" target="AQdLPhv-uh6YqJUB_EW2-9" source="AQdLPhv-uh6YqJUB_EW2-1">
          <mxGeometry width="50" height="50" relative="1" as="geometry">
            <mxPoint x="40" y="210" as="sourcePoint" />
            <mxPoint x="270" y="120" as="targetPoint" />
          </mxGeometry>
        </mxCell>
        <mxCell id="AQdLPhv-uh6YqJUB_EW2-11" value="Location" style="ellipse;whiteSpace=wrap;html=1;" vertex="1" parent="1">
          <mxGeometry x="-140" y="220" width="120" height="80" as="geometry" />
        </mxCell>
        <mxCell id="AQdLPhv-uh6YqJUB_EW2-12" value="" style="endArrow=none;html=1;rounded=0;exitX=0;exitY=0;exitDx=0;exitDy=0;entryX=0.5;entryY=1;entryDx=0;entryDy=0;" edge="1" parent="1" target="AQdLPhv-uh6YqJUB_EW2-11" source="AQdLPhv-uh6YqJUB_EW2-1">
          <mxGeometry width="50" height="50" relative="1" as="geometry">
            <mxPoint x="120" y="190" as="sourcePoint" />
            <mxPoint x="150" y="120" as="targetPoint" />
          </mxGeometry>
        </mxCell>
        <mxCell id="AQdLPhv-uh6YqJUB_EW2-14" value="Name" style="ellipse;whiteSpace=wrap;html=1;" vertex="1" parent="1">
          <mxGeometry x="640" y="490" width="110" height="80" as="geometry" />
        </mxCell>
        <mxCell id="AQdLPhv-uh6YqJUB_EW2-16" value="Name" style="ellipse;whiteSpace=wrap;html=1;" vertex="1" parent="1">
          <mxGeometry x="510" y="90" width="120" height="80" as="geometry" />
        </mxCell>
        <mxCell id="AQdLPhv-uh6YqJUB_EW2-17" value="" style="endArrow=none;html=1;rounded=0;entryX=0.5;entryY=1;entryDx=0;entryDy=0;exitX=0.942;exitY=0.05;exitDx=0;exitDy=0;exitPerimeter=0;" edge="1" parent="1" target="AQdLPhv-uh6YqJUB_EW2-16" source="AQdLPhv-uh6YqJUB_EW2-5">
          <mxGeometry width="50" height="50" relative="1" as="geometry">
            <mxPoint x="480" y="220" as="sourcePoint" />
            <mxPoint x="680" y="160" as="targetPoint" />
          </mxGeometry>
        </mxCell>
        <mxCell id="AQdLPhv-uh6YqJUB_EW2-18" value="Name" style="ellipse;whiteSpace=wrap;html=1;" vertex="1" parent="1">
          <mxGeometry x="-140" y="370" width="120" height="80" as="geometry" />
        </mxCell>
        <mxCell id="AQdLPhv-uh6YqJUB_EW2-19" value="" style="endArrow=none;html=1;rounded=0;entryX=0;entryY=1;entryDx=0;entryDy=0;exitX=0.942;exitY=0.225;exitDx=0;exitDy=0;exitPerimeter=0;" edge="1" parent="1" target="AQdLPhv-uh6YqJUB_EW2-6" source="AQdLPhv-uh6YqJUB_EW2-18">
          <mxGeometry width="50" height="50" relative="1" as="geometry">
            <mxPoint x="20" y="520" as="sourcePoint" />
            <mxPoint x="110" y="460" as="targetPoint" />
          </mxGeometry>
        </mxCell>
        <mxCell id="AQdLPhv-uh6YqJUB_EW2-22" value="" style="endArrow=none;html=1;rounded=0;entryX=0.055;entryY=0.263;entryDx=0;entryDy=0;entryPerimeter=0;exitX=1;exitY=1;exitDx=0;exitDy=0;" edge="1" parent="1" source="AQdLPhv-uh6YqJUB_EW2-4" target="AQdLPhv-uh6YqJUB_EW2-14">
          <mxGeometry width="50" height="50" relative="1" as="geometry">
            <mxPoint x="550" y="440" as="sourcePoint" />
            <mxPoint x="450" y="390" as="targetPoint" />
          </mxGeometry>
        </mxCell>
        <mxCell id="AQdLPhv-uh6YqJUB_EW2-23" value="" style="endArrow=none;html=1;rounded=0;exitX=1;exitY=0;exitDx=0;exitDy=0;" edge="1" parent="1" source="AQdLPhv-uh6YqJUB_EW2-5" target="AQdLPhv-uh6YqJUB_EW2-24">
          <mxGeometry width="50" height="50" relative="1" as="geometry">
            <mxPoint x="580" y="200" as="sourcePoint" />
            <mxPoint x="630" y="150" as="targetPoint" />
          </mxGeometry>
        </mxCell>
        <mxCell id="AQdLPhv-uh6YqJUB_EW2-24" value="Employee ID" style="ellipse;whiteSpace=wrap;html=1;" vertex="1" parent="1">
          <mxGeometry x="380" y="90" width="120" height="80" as="geometry" />
        </mxCell>
        <mxCell id="AQdLPhv-uh6YqJUB_EW2-25" value="" style="endArrow=none;html=1;rounded=0;exitX=1;exitY=0;exitDx=0;exitDy=0;" edge="1" parent="1" source="AQdLPhv-uh6YqJUB_EW2-5" target="AQdLPhv-uh6YqJUB_EW2-26">
          <mxGeometry width="50" height="50" relative="1" as="geometry">
            <mxPoint x="400" y="440" as="sourcePoint" />
            <mxPoint x="450" y="390" as="targetPoint" />
          </mxGeometry>
        </mxCell>
        <mxCell id="AQdLPhv-uh6YqJUB_EW2-26" value="Position" style="ellipse;whiteSpace=wrap;html=1;" vertex="1" parent="1">
          <mxGeometry x="640" y="90" width="120" height="80" as="geometry" />
        </mxCell>
        <mxCell id="AQdLPhv-uh6YqJUB_EW2-28" value="" style="endArrow=none;html=1;rounded=0;exitX=1;exitY=0;exitDx=0;exitDy=0;" edge="1" parent="1" source="AQdLPhv-uh6YqJUB_EW2-5" target="AQdLPhv-uh6YqJUB_EW2-29">
          <mxGeometry width="50" height="50" relative="1" as="geometry">
            <mxPoint x="400" y="450" as="sourcePoint" />
            <mxPoint x="450" y="400" as="targetPoint" />
          </mxGeometry>
        </mxCell>
        <mxCell id="AQdLPhv-uh6YqJUB_EW2-29" value="Salary" style="ellipse;whiteSpace=wrap;html=1;" vertex="1" parent="1">
          <mxGeometry x="650" y="190" width="120" height="80" as="geometry" />
        </mxCell>
        <mxCell id="AQdLPhv-uh6YqJUB_EW2-30" value="" style="endArrow=none;html=1;rounded=0;exitX=0.5;exitY=0;exitDx=0;exitDy=0;entryX=1;entryY=1;entryDx=0;entryDy=0;" edge="1" parent="1" source="AQdLPhv-uh6YqJUB_EW2-31" target="AQdLPhv-uh6YqJUB_EW2-4">
          <mxGeometry width="50" height="50" relative="1" as="geometry">
            <mxPoint x="560" y="520" as="sourcePoint" />
            <mxPoint x="510" y="450" as="targetPoint" />
          </mxGeometry>
        </mxCell>
        <mxCell id="AQdLPhv-uh6YqJUB_EW2-31" value="Description" style="ellipse;whiteSpace=wrap;html=1;" vertex="1" parent="1">
          <mxGeometry x="630" y="380" width="120" height="80" as="geometry" />
        </mxCell>
        <mxCell id="AQdLPhv-uh6YqJUB_EW2-34" value="" style="endArrow=none;html=1;rounded=0;entryX=1;entryY=1;entryDx=0;entryDy=0;exitX=0.5;exitY=0;exitDx=0;exitDy=0;" edge="1" parent="1" source="AQdLPhv-uh6YqJUB_EW2-41" target="AQdLPhv-uh6YqJUB_EW2-4">
          <mxGeometry width="50" height="50" relative="1" as="geometry">
            <mxPoint x="505" y="600" as="sourcePoint" />
            <mxPoint x="490" y="480" as="targetPoint" />
          </mxGeometry>
        </mxCell>
        <mxCell id="AQdLPhv-uh6YqJUB_EW2-35" value="" style="endArrow=none;html=1;rounded=0;exitX=1;exitY=1;exitDx=0;exitDy=0;" edge="1" parent="1" source="AQdLPhv-uh6YqJUB_EW2-4" target="AQdLPhv-uh6YqJUB_EW2-38">
          <mxGeometry width="50" height="50" relative="1" as="geometry">
            <mxPoint x="400" y="450" as="sourcePoint" />
            <mxPoint x="560" y="530" as="targetPoint" />
          </mxGeometry>
        </mxCell>
        <mxCell id="AQdLPhv-uh6YqJUB_EW2-36" value="" style="endArrow=none;html=1;rounded=0;exitX=0;exitY=1;exitDx=0;exitDy=0;" edge="1" parent="1" source="AQdLPhv-uh6YqJUB_EW2-6" target="AQdLPhv-uh6YqJUB_EW2-37">
          <mxGeometry width="50" height="50" relative="1" as="geometry">
            <mxPoint x="400" y="450" as="sourcePoint" />
            <mxPoint x="150" y="550" as="targetPoint" />
          </mxGeometry>
        </mxCell>
        <mxCell id="AQdLPhv-uh6YqJUB_EW2-37" value="Contact Information" style="ellipse;whiteSpace=wrap;html=1;" vertex="1" parent="1">
          <mxGeometry x="-140" y="460" width="120" height="80" as="geometry" />
        </mxCell>
        <mxCell id="AQdLPhv-uh6YqJUB_EW2-38" value="Price" style="ellipse;whiteSpace=wrap;html=1;" vertex="1" parent="1">
          <mxGeometry x="630" y="590" width="120" height="80" as="geometry" />
        </mxCell>
        <mxCell id="AQdLPhv-uh6YqJUB_EW2-41" value="Ingredients" style="ellipse;shape=doubleEllipse;whiteSpace=wrap;html=1;aspect=fixed;" vertex="1" parent="1">
          <mxGeometry x="490" y="590" width="80" height="80" as="geometry" />
        </mxCell>
        <mxCell id="AQdLPhv-uh6YqJUB_EW2-42" value="" style="endArrow=classic;html=1;rounded=0;exitX=0;exitY=0.5;exitDx=0;exitDy=0;entryX=1;entryY=0.5;entryDx=0;entryDy=0;" edge="1" parent="1" source="AQdLPhv-uh6YqJUB_EW2-5" target="AQdLPhv-uh6YqJUB_EW2-1">
          <mxGeometry relative="1" as="geometry">
            <mxPoint x="220" y="340" as="sourcePoint" />
            <mxPoint x="380" y="340" as="targetPoint" />
          </mxGeometry>
        </mxCell>
        <mxCell id="AQdLPhv-uh6YqJUB_EW2-43" value="ONE TO MANY" style="edgeLabel;resizable=0;html=1;align=center;verticalAlign=middle;" connectable="0" vertex="1" parent="AQdLPhv-uh6YqJUB_EW2-42">
          <mxGeometry relative="1" as="geometry" />
        </mxCell>
        <mxCell id="AQdLPhv-uh6YqJUB_EW2-44" value="N" style="edgeLabel;resizable=0;html=1;align=left;verticalAlign=bottom;" connectable="0" vertex="1" parent="AQdLPhv-uh6YqJUB_EW2-42">
          <mxGeometry x="-1" relative="1" as="geometry" />
        </mxCell>
        <mxCell id="AQdLPhv-uh6YqJUB_EW2-45" value="1" style="edgeLabel;resizable=0;html=1;align=right;verticalAlign=bottom;" connectable="0" vertex="1" parent="AQdLPhv-uh6YqJUB_EW2-42">
          <mxGeometry x="1" relative="1" as="geometry" />
        </mxCell>
        <mxCell id="AQdLPhv-uh6YqJUB_EW2-47" value="" style="endArrow=classic;html=1;rounded=0;exitX=1;exitY=0.5;exitDx=0;exitDy=0;entryX=0;entryY=0.5;entryDx=0;entryDy=0;" edge="1" parent="1" source="AQdLPhv-uh6YqJUB_EW2-1" target="AQdLPhv-uh6YqJUB_EW2-5">
          <mxGeometry width="50" height="50" relative="1" as="geometry">
            <mxPoint x="270" y="360" as="sourcePoint" />
            <mxPoint x="320" y="310" as="targetPoint" />
          </mxGeometry>
        </mxCell>
        <mxCell id="AQdLPhv-uh6YqJUB_EW2-48" value="" style="endArrow=classic;startArrow=classic;html=1;rounded=0;exitX=1;exitY=0;exitDx=0;exitDy=0;entryX=0;entryY=1;entryDx=0;entryDy=0;" edge="1" parent="1" source="AQdLPhv-uh6YqJUB_EW2-6" target="AQdLPhv-uh6YqJUB_EW2-5">
          <mxGeometry width="50" height="50" relative="1" as="geometry">
            <mxPoint x="270" y="360" as="sourcePoint" />
            <mxPoint x="320" y="310" as="targetPoint" />
          </mxGeometry>
        </mxCell>
        <mxCell id="AQdLPhv-uh6YqJUB_EW2-49" value="&lt;blockquote style=&quot;margin: 0 0 0 40px; border: none; padding: 0px;&quot;&gt;&lt;br&gt;&lt;/blockquote&gt;" style="edgeLabel;html=1;align=center;verticalAlign=middle;resizable=0;points=[];" vertex="1" connectable="0" parent="AQdLPhv-uh6YqJUB_EW2-48">
          <mxGeometry x="-0.0273" y="1" relative="1" as="geometry">
            <mxPoint as="offset" />
          </mxGeometry>
        </mxCell>
        <mxCell id="AQdLPhv-uh6YqJUB_EW2-50" value="" style="endArrow=classic;html=1;rounded=0;exitX=1;exitY=0;exitDx=0;exitDy=0;entryX=0;entryY=1;entryDx=0;entryDy=0;" edge="1" parent="1" source="AQdLPhv-uh6YqJUB_EW2-6" target="AQdLPhv-uh6YqJUB_EW2-5">
          <mxGeometry relative="1" as="geometry">
            <mxPoint x="220" y="340" as="sourcePoint" />
            <mxPoint x="380" y="340" as="targetPoint" />
          </mxGeometry>
        </mxCell>
        <mxCell id="AQdLPhv-uh6YqJUB_EW2-51" value="MANY TO MANY" style="edgeLabel;resizable=0;html=1;align=center;verticalAlign=middle;" connectable="0" vertex="1" parent="AQdLPhv-uh6YqJUB_EW2-50">
          <mxGeometry relative="1" as="geometry" />
        </mxCell>
        <mxCell id="AQdLPhv-uh6YqJUB_EW2-52" value="M" style="edgeLabel;resizable=0;html=1;align=left;verticalAlign=bottom;" connectable="0" vertex="1" parent="AQdLPhv-uh6YqJUB_EW2-50">
          <mxGeometry x="-1" relative="1" as="geometry" />
        </mxCell>
        <mxCell id="AQdLPhv-uh6YqJUB_EW2-53" value="N" style="edgeLabel;resizable=0;html=1;align=right;verticalAlign=bottom;" connectable="0" vertex="1" parent="AQdLPhv-uh6YqJUB_EW2-50">
          <mxGeometry x="1" relative="1" as="geometry" />
        </mxCell>
        <mxCell id="AQdLPhv-uh6YqJUB_EW2-57" value="" style="endArrow=classic;html=1;rounded=0;exitX=0;exitY=1;exitDx=0;exitDy=0;entryX=1;entryY=1;entryDx=0;entryDy=0;" edge="1" parent="1" source="AQdLPhv-uh6YqJUB_EW2-4" target="AQdLPhv-uh6YqJUB_EW2-1">
          <mxGeometry relative="1" as="geometry">
            <mxPoint x="390" y="400" as="sourcePoint" />
            <mxPoint x="190" y="290" as="targetPoint" />
          </mxGeometry>
        </mxCell>
        <mxCell id="AQdLPhv-uh6YqJUB_EW2-58" value="MANY TO ONE" style="edgeLabel;resizable=0;html=1;align=center;verticalAlign=middle;" connectable="0" vertex="1" parent="AQdLPhv-uh6YqJUB_EW2-57">
          <mxGeometry relative="1" as="geometry" />
        </mxCell>
        <mxCell id="AQdLPhv-uh6YqJUB_EW2-59" value="N" style="edgeLabel;resizable=0;html=1;align=left;verticalAlign=bottom;" connectable="0" vertex="1" parent="AQdLPhv-uh6YqJUB_EW2-57">
          <mxGeometry x="-1" relative="1" as="geometry" />
        </mxCell>
        <mxCell id="AQdLPhv-uh6YqJUB_EW2-60" value="1" style="edgeLabel;resizable=0;html=1;align=right;verticalAlign=bottom;" connectable="0" vertex="1" parent="AQdLPhv-uh6YqJUB_EW2-57">
          <mxGeometry x="1" relative="1" as="geometry" />
        </mxCell>
        <mxCell id="AQdLPhv-uh6YqJUB_EW2-62" value="" style="endArrow=classic;html=1;rounded=0;exitX=1;exitY=0.5;exitDx=0;exitDy=0;entryX=0;entryY=0.5;entryDx=0;entryDy=0;" edge="1" parent="1" source="AQdLPhv-uh6YqJUB_EW2-6" target="AQdLPhv-uh6YqJUB_EW2-4">
          <mxGeometry relative="1" as="geometry">
            <mxPoint x="220" y="340" as="sourcePoint" />
            <mxPoint x="380" y="340" as="targetPoint" />
          </mxGeometry>
        </mxCell>
        <mxCell id="AQdLPhv-uh6YqJUB_EW2-63" value="Label" style="edgeLabel;resizable=0;html=1;align=center;verticalAlign=middle;" connectable="0" vertex="1" parent="AQdLPhv-uh6YqJUB_EW2-62">
          <mxGeometry relative="1" as="geometry" />
        </mxCell>
        <mxCell id="AQdLPhv-uh6YqJUB_EW2-64" value="M" style="edgeLabel;resizable=0;html=1;align=left;verticalAlign=bottom;" connectable="0" vertex="1" parent="AQdLPhv-uh6YqJUB_EW2-62">
          <mxGeometry x="-1" relative="1" as="geometry" />
        </mxCell>
        <mxCell id="AQdLPhv-uh6YqJUB_EW2-65" value="N" style="edgeLabel;resizable=0;html=1;align=right;verticalAlign=bottom;" connectable="0" vertex="1" parent="AQdLPhv-uh6YqJUB_EW2-62">
          <mxGeometry x="1" relative="1" as="geometry" />
        </mxCell>
        <mxCell id="AQdLPhv-uh6YqJUB_EW2-66" value="MANY TO MANY" style="edgeLabel;html=1;align=center;verticalAlign=middle;resizable=0;points=[];" vertex="1" connectable="0" parent="AQdLPhv-uh6YqJUB_EW2-62">
          <mxGeometry y="-3" relative="1" as="geometry">
            <mxPoint as="offset" />
          </mxGeometry>
        </mxCell>
      </root>
    </mxGraphModel>
  </diagram>
</mxfile>
